<svg width="403" height="455" viewBox="0 0 403 455" fill="none" xmlns="http://www.w3.org/2000/svg">
<path d="M10.9513 441.747C9.2276 438.474 9.22787 434.943 9.68973 432.071C9.83864 431.196 11.4303 431.252 11.5988 430.622C11.9334 429.418 10.9723 428.596 11.4258 427.371C11.5831 426.962 14.0562 426.86 14.1703 426.459C14.5136 425.215 14.3387 424.125 14.1272 422.999C13.977 422.191 13.7885 421.285 13.8266 420.403C14.1775 410.007 13.1325 400.208 12.3516 390.021C12.0942 386.675 13.5427 382.294 11.993 379.07C11.81 378.695 9.74671 379.301 9.55995 379.257C6.69525 378.538 11.0142 378.185 11.443 377.31C13.1393 373.87 12.7523 370.414 11.4547 367.613C10.8947 366.41 6.91339 368.363 9.05617 366.705C9.20077 366.592 11.4924 366.542 11.6753 366.161C12.0857 365.299 11.4454 363.882 11.5253 363.243C11.6914 362.017 11.6397 361.836 11.4903 360.727C11.3044 359.197 12.1436 357.25 11.3866 355.697C11.2185 355.367 8.98802 356.175 8.51287 355.685C8.03819 355.195 8.01266 353.701 8.48137 353.124C8.95018 352.547 10.7905 352.489 11.192 352.34C14.5835 351.098 9.48996 350.139 9.33774 349.932C6.7147 346.253 9.00222 342.443 8.4977 338.718C8.10738 335.879 6.80602 332.965 6.59969 330.242C6.36641 327.043 7.26985 324.206 6.75621 321.144C6.74865 321.099 6.74078 321.054 6.7326 321.008C6.6759 320.68 3.99985 321.369 3.92504 320.967C3.13259 316.692 2.99298 312.368 4.43202 307.908C4.57886 307.462 7.0218 307.792 7.31165 307.333C9.0298 304.517 13.4031 300.021 2.85515 299.316C3.11535 297.497 3.36692 295.299 5.35007 293.548C6.62662 292.421 9.30964 293.222 8.10372 292.05C7.83492 291.785 5.57648 292.321 5.34619 291.91C4.37865 290.176 4.98576 288.162 3.6875 286.464C3.41802 286.118 1.3757 286.351 1.00001 286.272C-2.04515 285.599 2.80379 283.844 3.14376 283.512C5.67327 280.966 4.51966 279.302 4.46375 277.079C4.45215 276.563 1.73122 277.322 1.62116 276.83C1.08769 274.28 1.19316 271.595 2.30364 269.022C2.55733 268.449 4.92716 268.86 5.16853 268.582C6.20494 267.36 1.76074 267.289 2.67172 266.117C2.85818 265.87 4.87318 265.922 5.09209 265.87C8.52873 265.051 3.59663 264.659 3.48134 264.487C1.91425 262.33 6.98924 260.727 6.19401 258.628C6.09377 258.376 3.5689 259.034 3.44267 258.319C2.58699 253.553 3.16763 248.454 5.13261 243.695C5.43474 242.955 7.35392 243.452 7.58885 243.402C11.2595 242.599 6.32021 242.182 6.13128 241.944C4.76926 240.066 8.89026 238.269 3.00488 237.029C4.98497 229.006 1.73669 220.972 7.15421 213.128C7.21714 213.029 9.64293 213.256 9.75799 213.058C11.1707 210.674 7.38636 211.061 2.80572 209.347C1.65562 208.913 7.2604 207.819 7.67189 207.723C9.18765 207.366 12.7909 207.867 13.0858 207.743C15.4038 206.715 3.4483 206.577 3.48569 205.09C3.50692 205.044 5.70096 205.301 5.92313 205.183C6.62056 204.817 5.75757 204.409 6.52577 204.053C8.30332 203.239 14.1182 203.115 10.781 201.695C10.3479 201.514 3.56141 201.553 3.92547 200.238C4.07569 199.716 4.04191 197.372 4.50623 196.735C4.96929 196.098 7.13615 196.628 7.23246 196.585C10.1865 194.94 11.3581 195.652 15.667 194.946C19.9602 194.245 9.79398 194.079 8.67488 193.674C7.55893 193.268 9.9947 192.081 10.8364 191.803C11.6783 191.523 13.0487 191.975 13.5295 191.716C16.6728 189.999 8.52443 190.681 6.93977 189.996C5.80123 189.504 5.70684 189.087 6.14999 188.711C7.16712 187.846 11.0152 187.201 11.574 186.308C11.7907 185.96 10.0616 186.168 9.91692 185.841C9.3671 184.548 11.7547 183.91 9.677 182.362C9.3383 182.11 4.87542 180.699 8.23849 180.128C8.7233 180.048 10.5821 180.455 11.0322 179.941C11.7074 179.172 12.2004 177.753 11.625 176.854C11.1991 176.19 8.0656 176.736 9.07355 175.99C9.52365 175.659 11.2913 176.429 11.9861 175.799C12.6802 175.172 12.7065 173.469 12.6858 172.819C12.6633 172.17 10.2976 172.372 10.1431 172.31C9.25878 171.937 8.21053 170.616 8.22079 170.506C8.30317 164.928 12.6332 160.126 11.7787 154.644C11.7153 154.213 9.22436 154.286 9.18925 154.218C8.27863 152.679 14.741 154.378 17.0224 153.56C12.0039 153.276 12.9609 152.758 12.5008 151.695C12.2751 151.182 10.3137 151.278 10.1192 151.216C7.23964 150.228 11.0875 150.052 11.8767 149.993C14.7805 149.767 11.4479 148.938 13.3897 148.784C15.3171 148.631 18.0618 149.636 18.1143 148.664C16.3483 148.227 11.6013 148.521 10.9107 147.711C8.2959 144.634 12.4838 139.755 13.1031 137.553C13.7191 135.349 13.4685 134.595 14.258 133.355C15.6872 131.126 12.1248 131.613 10.7055 129.957C9.289 128.295 17.7311 129.995 19.5877 129.994C21.443 129.999 19.5836 129.557 20.62 129.418C21.6561 129.281 22.838 129.975 23.2853 129.422C23.7314 128.873 20.6679 126.853 18.7794 126.406C14.777 125.467 10.4287 125.7 12.1191 124.276C12.2191 124.195 14.4224 124.765 14.6916 124.441C16.7556 121.86 17.234 118.967 19.1291 116.398C19.393 116.047 21.8349 116.721 22.0165 116.522C23.9208 114.426 19.6154 114.684 15.1347 112.764C21.293 113.905 25.1767 113.75 25.4624 112.006C25.6364 110.962 22.906 110.754 21.0985 109.798C20.5537 109.51 22.5183 109.042 21.2668 108.721C17.1775 107.66 12.4195 107.681 14.5449 106.123C14.6449 106.056 16.8807 106.651 17.0598 106.396C18.229 104.756 13.9178 103.879 13.6964 101.851C13.52 100.275 16.6048 97.9916 17.3264 96.3454C24.2565 97.5474 22.94 95.681 18.2761 94.198C18.6657 93.1143 18.6116 91.8511 19.4646 90.9054C19.7561 90.5794 21.716 91.1849 21.9409 91.1779C25.4671 91.0807 20.9154 89.7485 20.7784 89.4722C19.4923 86.5503 23.4144 85.1158 20.497 81.9372C20.3914 81.8259 15.6352 80.6944 19.266 80.7547C19.5159 80.761 21.5224 82.0316 21.9336 80.8981C22.3487 79.7462 25.3742 78.1316 23.529 76.0286C23.0814 75.5339 19.4469 73.6299 22.6525 73.5326C23.087 73.5225 24.4246 73.9568 25.2193 73.9828C27.7524 74.0641 23.009 72.6624 27.2272 73.0625C30.7613 73.3915 33.6726 73.1525 33.1034 71.7609C32.9951 71.4823 32.7561 71.1591 32.3658 70.7854C32.2967 70.7159 28.6009 69.367 28.7915 68.8793C29.094 68.1182 30.191 67.1684 30.3919 66.3421C30.4872 65.9442 28.0746 65.551 28.0506 65.4706C27.4949 62.3788 30.1428 61.055 31.9482 58.5085C32.2855 58.036 29.6329 55.4984 32.472 55.3143C35.5667 55.1615 46.4237 60.2185 44.5867 56.9457C43.8288 55.7137 30.2058 48.9269 38.2215 50.0434C37.8514 45.8355 42.8882 44.5192 42.1903 40.0562C42.16 39.8569 38.7419 37.3139 38.9986 36.9836C39.3894 36.4927 41.2609 37.2089 41.5852 36.9205C43 35.7207 42.4738 33.4357 43.708 32.1564C44.164 31.686 45.6919 33.0547 46.23 32.5194C46.763 31.995 44.9581 29.9266 46.6409 29.9102C47.9239 29.9019 52.5943 32.8887 53.6599 32.6583C49.6431 29.0206 50.1756 28.5778 50.0204 26.6743C49.9926 26.3033 48.4499 25.1847 48.3684 24.94C48.0145 23.9071 49.4497 24.6803 49.031 23.6059C48.9326 23.3457 47.6358 22.0245 47.4873 21.7326C47.0616 20.9145 47.1862 20.5693 47.5609 20.502C48.3641 20.3418 50.2513 21.411 50.6925 21.6722C53.1739 23.1351 51.8615 21.0841 53.0688 21.474C54.2628 21.8794 54.4231 23.5246 55.4038 23.5535C57.4035 23.6377 58.6562 22.2997 59.9171 21.5592C60.4114 21.2562 58.7179 19.4156 58.7565 19.3247C59.5187 18.0667 61.8731 19.7421 60.1569 15.0745C66.9447 25.8809 60.2685 13.594 63.1776 15.0198C63.4022 15.1417 66.1137 20.5164 66.0315 21.5338C65.9691 22.5408 64.4571 21.1893 64.5249 22.7173C64.5014 23.0938 66.5822 28.3944 66.7098 28.7191C67.4865 31.3607 62.6237 23.8051 62.2991 23.4236C58.9043 19.2576 61.2798 24.9959 61.3526 25.4667C61.4547 27.7606 59.8427 27.4364 59.8924 29.1977C59.9287 30.3372 63.7918 34.7886 63.3135 34.9755C62.7822 35.1889 61.7561 34.7255 60.7348 34.2643C58.7122 33.3129 56.6729 32.4024 59.3979 36.4465C60.2722 37.7402 65.2363 41.8424 60.7587 39.2503C60.4958 39.0628 56.395 36.7173 58.3151 38.9982C58.5598 39.2821 60.0099 40.4732 60.0838 40.6318C60.5529 41.6699 59.1661 41.0131 59.3805 41.9136C59.6036 42.8042 60.0832 43.9609 59.189 44.139C58.6617 44.2327 55.446 42.7566 54.61 42.4727C52.1971 41.6587 55.2806 44.3569 52.5346 43.1267C49.7505 41.9322 46.2953 38.8309 44.026 38.8476C48.1978 41.3713 52.4599 43.9956 56.6588 46.5282C55.4654 48.2193 53.0707 49.4189 52.2939 51.6151C52.2027 51.8889 54.7056 52.7193 54.6727 53.0346C54.544 54.3203 52.3792 54.6221 52.5575 56.157C52.7017 57.3578 54.8799 59.4181 55.1664 60.6598C49.7019 59.3446 50.9086 61.5914 50.0397 62.5835C49.737 62.9312 48.3326 62.4333 47.7729 62.5763C45.6932 63.146 50.5539 64.1487 51.1935 64.6897C53.9475 66.9465 43.2539 63.7462 43.0275 65.4443C43.0098 65.5375 48.4009 68.2809 48.7215 68.5082C50.7862 70.0602 46.691 68.0747 46.1068 68.5148C45.0379 69.3312 43.463 69.6888 44.8115 71.3822C45.2087 71.8918 48.5727 73.6707 45.6178 73.6475C45.2304 73.646 43.3394 73.1052 43.2086 73.1516C42.3934 73.4781 42.6927 73.9055 43.4887 74.3697C44.8525 75.1515 47.6642 76.0533 48.8283 76.8469C50.6737 78.099 46.2438 78.2928 44.99 78.2569C41.7439 78.1701 43.7832 77.4531 43.4878 77.3492C39.9727 76.0813 40.3847 77.107 39.9192 77.724C33.9968 76.446 34.122 77.5215 39.4603 78.3721C40.0435 78.4638 39.6174 77.7989 39.9192 77.724C45.5652 79.6826 46.0782 80.8465 40.3986 80.8053C37.7367 80.7903 34.883 79.6237 35.6012 81.5489C35.9272 82.4173 40.0687 82.9959 41.0394 83.8987C43.2522 85.9679 39.0407 87.1528 39.3304 88.8662C39.4365 89.4829 41.7864 89.362 41.9367 89.797C42.3432 90.9511 40.4836 91.5586 41.1517 92.7616C41.2151 92.8713 43.6074 93.0789 43.5771 93.4082C43.3914 95.9276 41.5053 97.7992 41.0236 100.393C40.7898 101.654 41.7241 104.106 41.2568 105.367C40.4589 107.546 36.5983 109.835 37.1497 111.914C37.5003 113.261 39.907 113.324 41.4414 114.098C44.4157 115.594 38.5603 116.645 37.6575 116.786C37.6276 116.789 37.2212 115.616 35.9247 116.033C33.3447 116.024 37.6482 116.772 37.6575 116.786C37.0737 116.872 36.2371 119.001 36.6337 119.493C36.8498 119.762 39.1124 119.928 39.1828 120.063C40.8019 123.267 41.0079 126.239 39.6007 129.087C39.549 129.134 37.0431 128.754 36.9528 128.869C35.6277 130.471 38.5788 131.928 40.2448 133.562C41.9115 135.187 41.1768 136.232 36.761 136.609C37.1871 137.751 35.1124 139.079 33.8587 139.857C32.605 140.632 37.4978 141.264 37.5867 141.351C40.4421 144.095 37.4937 145.226 36.8149 147.718C36.4829 148.909 36.9759 151.358 37.3974 152.715C37.7384 153.787 36.5334 154.302 37.1878 155.318C37.2751 155.455 39.4739 155.512 39.5548 155.559C42.0819 156.84 36.7771 155.876 35.8032 156.014C32.2621 156.516 30.3694 156.861 31.892 158.361C32.2403 158.709 39.8698 160.246 40.2753 160.85C40.7882 161.636 38.0484 161.14 38.6566 161.968C38.7062 162.038 40.411 162.157 40.2988 162.629C39.8001 164.824 38.6298 167.175 38.6396 169.504C38.6345 169.821 41.3668 169.605 41.4042 170.064C41.5771 172.219 41.3243 174.552 39.9298 176.557C39.578 177.05 37.7033 176.613 37.1339 176.69C33.688 177.17 38.5755 178.442 38.6605 178.606C40.8131 182.557 36.1797 185.244 38.127 189.25C38.1785 189.348 39.2519 189.778 40.0143 190.268C40.9572 190.875 41.4243 191.573 38.8902 191.864C38.5853 191.899 33.8973 192.421 37.0537 193.196C37.2512 193.244 39.6673 192.898 39.3899 193.67C39.113 194.442 40.6625 195.766 37.9869 196.74C37.144 197.047 32.467 197.684 36.1335 198.841C36.3892 198.921 44.7081 200.78 38.9116 201.141C37.9576 201.199 31.8454 200.9 34.9408 202.222C35.5411 202.474 36.9186 202.096 37.7507 202.736C39.0334 203.714 37.3578 204.907 40.0499 206.134C40.5265 206.349 44.654 207.311 41.4855 207.91C40.9893 208.004 38.9527 207.747 38.7148 208.103C37.5742 209.797 38.8988 211.63 37.4513 213.349C36.9426 213.958 33.6474 213.577 32.7504 214.209C31.8536 214.84 30.98 216.14 32.4783 216.843C33.9772 217.545 39.2504 216.887 39.6564 217.903C41.421 222.314 38.3031 226.627 37.854 231.024C37.7871 231.676 39.6695 231.134 39.7067 232.092C39.8481 235.628 41.6739 241.68 37.7299 244.812C34.5687 247.331 32.0741 244.269 30.8039 246.183C30.1986 247.11 36.3361 247.974 36.5333 248.187C38.5347 250.284 35.8619 251.833 36.746 253.739C36.9295 254.132 39.3975 253.674 39.5263 254.008C39.9884 255.145 38.9188 256.392 39.1568 257.487C39.2693 257.977 41.1593 257.824 41.0282 258.282C40.7367 259.377 39.975 260.366 38.2404 261.493C38.0824 261.596 35.7036 261.029 35.6461 261.84C35.5598 263.149 33.8752 264.852 35.7468 266.278C36.3097 266.702 40.6345 266.527 37.6906 267.617C37.076 267.845 31.8715 267.825 36.4091 268.738C37.1632 268.897 43.3016 270.468 39.4479 271.576C38.4335 271.868 34.2167 272.704 34.9121 273.208C35.0224 273.275 37.3293 272.864 37.5788 273.296C38.4175 274.817 38.2598 276.47 39.0798 278.029C39.3034 278.445 41.6683 277.67 41.9248 278.292C42.634 280.006 42.1578 282.216 41.5196 283.978C41.2796 284.626 39.2622 284.323 39.0487 284.383C35.5778 285.358 40.3587 285.477 40.6523 285.702C42.4146 287.108 40.2658 288.426 40.959 289.786C41.1443 290.161 43.3885 289.72 43.5961 289.782C45.6276 290.431 41.5174 290.14 41.1068 290.679C39.9435 292.194 40.248 293.76 40.653 295.172C40.805 295.689 43.3814 294.886 43.4875 295.352C44.1654 298.101 44.165 301.006 42.972 303.861C42.7426 304.398 40.6942 304.264 40.2431 304.414C37.0862 305.454 41.5883 306.122 42.0311 306.329C44.0526 307.273 42.3111 307.883 42.7429 308.846C43.8641 311.307 44.2521 314.149 44.3465 316.968C44.4331 319.541 44.2765 322.098 44.1939 324.323C43.9831 330.416 42.689 335.337 43.9925 340.996C44.0731 341.356 46.6913 340.611 46.795 340.916C48.0112 344.86 47.5596 348.978 48.9603 352.91C49.0702 353.23 51.5222 352.362 51.7833 352.862C52.3387 353.898 52.4191 355.295 51.7888 356.52C51.4872 357.123 49.2046 356.745 48.9455 357.346C48.3381 358.751 48.3751 360.112 48.9961 361.358C49.265 361.882 51.7072 360.623 51.8555 361.335C52.9187 366.172 54.1882 370.861 51.7465 376.385C51.5794 376.767 46.4051 378.018 47.5397 378.559C49.0005 378.349 50.7067 378.035 52.2618 377.775C54.3924 384.72 53.9385 392.073 55.1154 399.244C55.1659 399.547 57.8179 398.463 57.9295 399.045C58.5754 402.4 60.02 405.477 58.0183 409.461C57.8254 409.863 52.9474 410.745 53.8976 411.588C54.0667 411.724 55.0467 413.112 56.1803 413.258C56.3501 413.274 58.549 412.509 58.7192 412.968C58.7394 413.025 58.7592 413.081 58.7785 413.138C59.6918 415.849 59.8065 418.79 59.0848 421.734C58.9587 422.208 56.4552 422.324 56.3477 422.68C55.5991 425.176 58.0148 427.113 56.2809 429.095C55.074 430.276 50.925 431.274 47.1155 433.061C46.8448 433.183 46.7236 433.332 46.3186 433.413C45.9442 433.534 45.0878 433.345 44.0569 434.017C39.359 438.024 32.9208 440.409 27.6868 444.365C27.5541 444.485 27.5391 444.712 27.6266 445.027C27.7234 445.351 27.8779 445.715 28.304 446.341C28.99 447.33 31.014 449.993 35.3289 451.6C37.2981 452.322 38.9641 452.489 39.6065 452.619C40.2992 452.745 40.298 452.866 40.3177 453.048C40.3211 453.137 40.3242 453.238 40.3085 453.353C40.2876 453.467 40.2538 453.596 40.0248 453.737C39.6634 453.947 37.9138 454.613 33.8429 453.608C33.3203 453.5 30.414 452.358 28.2959 450.639C26.2579 449.056 25.0609 447.637 24.2244 446.75C22.5925 444.943 21.861 444.46 21.116 444.238C20.1778 444.065 18.2714 445.938 16.8952 445.28C15.5425 444.647 17.2121 443.128 15.7767 442.593C14.3457 442.098 11.7346 443.228 10.9513 441.747ZM28.2605 143.364C25.8211 143.967 34.4413 144.937 32.4647 143.836C32.359 143.782 28.3804 143.332 28.2605 143.364ZM47.2318 46.5432C43.3541 45.7489 48.1226 48.8285 51.0848 49.4831C54.0207 50.1908 48.3961 46.8088 47.2318 46.5432ZM50.0854 36.3302C46.9319 35.5559 56.9688 42.6697 55.5436 40.3816C55.4627 40.2535 50.2667 36.3785 50.0854 36.3302ZM45.1279 430.61C45.0181 430.647 45.0783 431.291 45.192 431.271C47.9311 430.842 47.824 429.613 45.1279 430.61ZM54.7622 26.529C53.8365 25.9073 53.7278 26.6119 54.2603 27.5006C54.5355 27.9525 54.9791 28.4505 55.5546 28.8527C55.5799 28.8702 55.6055 28.8875 55.6314 28.9047C57.0445 29.8523 56.503 27.7383 54.7622 26.529ZM15.8045 186.479C15.6748 186.486 15.5347 186.971 16.2649 186.996C18.6169 187.076 17.9868 186.364 15.8045 186.479ZM70.8734 15.6566C66.9003 18.3915 62.0771 8.81249 63.8649 9.22499C63.9985 9.25698 64.4117 9.96079 64.7533 10.8112C65.106 11.6541 65.4055 12.6266 65.9018 12.8586C66.8187 13.271 66.5375 11.9878 66.0255 11.1406C65.556 10.2396 64.858 9.9461 66.6607 10.3306C66.9795 10.4136 68.2088 11.585 69.2692 12.8225C70.3443 14.0539 70.9896 15.5897 70.8783 15.6719C70.8766 15.6668 70.875 15.6617 70.8734 15.6566ZM17.8449 142.822C17.7291 142.828 17.5541 143.497 17.6659 143.523C20.3706 144.157 20.7238 142.817 17.8449 142.822ZM9.49195 215.002C9.24658 215.036 8.9919 216.619 9.2166 216.674C13.7055 217.567 14.2332 214.385 9.49195 215.002ZM17.516 96.3494C14.9102 95.1434 14.7429 94.1902 18.272 94.2007C17.9633 94.8989 17.8098 95.634 17.516 96.3494Z" fill="#FF0000"/>
<path d="M337.462 417.742C336.784 415.291 337.691 412.138 338.873 409.76C339.24 409.015 340.765 409.445 341.087 408.933C341.716 407.931 340.991 406.954 341.733 405.97C341.987 405.644 344.408 406.132 344.618 405.788C345.751 403.9 345.185 402.067 345.758 400.138C348.583 390.641 349.726 381.277 350.991 371.632C351.407 368.463 353.668 364.598 352.734 361.309C352.623 360.923 350.484 361.131 350.308 361.056C347.623 359.884 351.934 360.303 352.514 359.561C354.804 356.621 355.021 353.303 354.205 350.442C353.851 349.228 349.603 350.433 351.989 349.217C352.15 349.133 354.419 349.447 354.661 349.113C355.208 348.359 354.804 346.911 354.984 346.332C355.342 345.205 355.319 345.018 355.344 343.946C355.398 342.469 356.521 340.752 356 339.172C355.882 338.836 353.557 339.291 353.159 338.757C352.761 338.222 352.951 336.821 353.496 336.339C354.042 335.86 355.872 336.05 356.291 335.963C359.824 335.245 354.912 333.63 354.789 333.43C352.692 329.624 355.443 326.289 355.38 322.7C355.326 319.95 354.351 317.059 354.422 314.456C354.516 311.354 355.714 308.71 355.416 305.685C355.388 305.37 352.663 305.813 352.622 305.429C352.193 301.335 352.364 297.21 354.067 293.066C354.24 292.647 356.659 293.095 356.976 292.671C358.581 290.439 362.15 287.113 356.667 285.465C355.715 285.187 354.491 284.961 352.936 284.802C353.277 283.095 353.611 280.984 355.651 279.375C356.964 278.335 359.62 279.176 358.452 278.015C358.191 277.753 355.918 278.208 355.7 277.808C354.786 276.122 355.444 274.196 354.182 272.554C353.92 272.219 351.873 272.41 351.499 272.33C348.469 271.649 353.347 270.035 353.692 269.715C356.26 267.309 355.122 265.692 355.078 263.554C355.068 263.062 352.344 263.785 352.237 263.317C351.715 260.889 351.814 258.31 352.903 255.843C353.151 255.292 355.524 255.654 355.763 255.384C356.788 254.191 352.343 254.189 353.239 253.048C353.422 252.808 355.437 252.823 355.655 252.768C359.08 251.916 354.143 251.633 354.025 251.471C352.423 249.441 357.463 247.773 356.615 245.764C356.508 245.525 354.002 246.23 353.857 245.547C352.88 240.994 353.27 236.092 354.999 231.409C355.264 230.68 357.205 231.058 357.437 230.998C361.063 230.027 356.109 229.884 355.908 229.666C354.452 227.936 358.463 225.951 352.515 225.118C354.017 217.266 350.16 209.853 354.806 201.801C354.859 201.7 357.295 201.683 357.391 201.48C358.566 199.039 354.836 199.779 350.109 198.606C348.922 198.311 354.384 196.68 354.783 196.542C356.253 196.038 359.888 196.142 360.169 195.99C362.365 194.744 350.465 195.892 350.344 194.466C350.36 194.42 352.569 194.427 352.777 194.29C353.431 193.861 352.529 193.563 353.254 193.137C354.931 192.159 360.696 191.378 357.22 190.387C356.769 190.263 350.033 191.073 350.245 189.779C350.336 189.264 350.029 187.022 350.412 186.357C350.796 185.692 353.01 185.936 353.101 185.883C355.834 183.942 357.082 184.481 361.27 183.263C365.442 182.045 355.336 183.16 354.176 182.912C353.018 182.662 355.284 181.209 356.083 180.83C356.882 180.452 358.298 180.711 358.742 180.398C361.636 178.324 353.646 180.052 351.986 179.603C348.058 178.553 355.468 176.789 356.087 175.437C356.254 175.072 354.57 175.511 354.382 175.217C353.66 174.051 355.936 173.105 353.66 171.917C353.289 171.72 348.672 171.014 351.915 169.979C352.383 169.831 354.281 169.949 354.651 169.389C355.207 168.551 355.484 167.118 354.779 166.343C354.257 165.767 351.244 166.772 352.127 165.901C352.521 165.513 354.385 165.983 354.975 165.269C355.565 164.558 355.327 162.916 355.203 162.297C355.079 161.679 352.775 162.249 352.613 162.214C351.682 161.999 350.437 160.912 350.429 160.802C349.618 155.495 353.044 150.134 351.181 145.083C351.038 144.682 348.606 145.223 348.559 145.164C347.375 143.872 354.04 144.269 356.124 143.048C351.144 143.735 351.986 143.056 351.33 142.134C351.01 141.691 349.104 142.162 348.902 142.14C345.887 141.766 349.627 140.863 350.389 140.651C353.192 139.868 349.762 139.729 351.634 139.197C353.492 138.666 356.382 139.086 356.239 138.138C354.421 138.073 349.83 139.302 348.992 138.669C345.828 136.304 348.906 130.874 349.017 128.622C349.135 126.415 348.72 125.767 349.206 124.412C350.086 121.986 346.731 123.257 344.971 122.065C343.205 120.843 351.804 120.44 353.607 120C355.409 119.561 353.498 119.582 354.471 119.201C355.443 118.82 356.758 119.202 357.058 118.562C357.358 117.919 353.896 116.75 351.958 116.803C347.849 116.907 343.695 118.193 344.981 116.44C345.057 116.339 347.332 116.329 347.512 115.956C348.025 114.843 348.305 113.756 348.516 112.688C348.854 110.852 349.019 109.144 349.715 107.294C349.873 106.889 352.405 106.861 352.525 106.621C353.78 104.125 349.712 105.55 344.882 105.041C351.111 104.393 354.792 103.117 354.564 101.388C354.429 100.355 351.756 100.952 349.751 100.597C349.148 100.499 350.883 99.4579 349.593 99.5293C345.376 99.7549 340.84 101.167 342.411 99.1396C342.486 99.0496 344.795 98.9244 344.891 98.6399C345.519 96.8245 341.14 97.2725 340.312 95.5594C339.66 94.2049 341.859 91.223 341.982 89.477C348.907 88.2441 347.041 86.9972 342.152 87.2483C342.143 86.1254 341.665 85.0918 342.116 83.9097C342.27 83.5102 344.314 83.3491 344.521 83.2617C347.77 81.8982 343.05 82.361 342.824 82.1747C340.563 80.0614 343.631 77.3004 339.694 75.7181C339.552 75.6611 334.757 76.6067 338.095 75.2015C338.325 75.1055 340.668 75.3753 340.586 74.2488C340.504 73.1194 342.552 70.4088 339.972 69.4439C339.356 69.2264 335.272 69.2628 338.082 67.7655C338.464 67.5617 339.847 67.312 340.564 66.9725C342.847 65.8873 338.003 66.8861 341.907 65.2518C345.813 63.6261 348.507 61.5556 345.272 60.7979C345.175 60.7684 341.309 61.4895 341.226 60.9954C341.103 60.2192 341.537 58.8536 341.262 58.0763C341.124 57.6881 338.889 58.6793 338.825 58.625C336.714 56.5163 338.158 54.0568 337.982 51.0235C337.942 50.4341 334.327 50.3415 336.331 48.3876C338.494 46.1965 349.928 42.4767 346.088 40.9567C344.696 40.3765 333.443 44.6796 335.159 42.0908C335.372 41.7428 335.796 41.2733 336.474 40.6493C333.032 38.3899 334.404 33.1428 329.77 31.8317C329.557 31.7648 325.972 34.0595 325.793 33.7605C325.507 33.2812 326.796 31.7581 326.616 31.3614C325.897 29.6707 323.594 29.7535 322.598 28.4583C322.205 27.9607 323.766 26.6226 323.275 26.0171C322.792 25.4238 320.617 27.0855 320.729 25.4393C320.819 24.1878 323.937 19.5987 323.841 18.6066C320.027 22.4475 319.638 21.9623 317.766 21.9613C317.396 21.9478 316.108 23.3525 315.851 23.4001C314.733 23.5657 315.69 22.2304 314.515 22.3554C314.228 22.377 312.651 23.3466 312.313 23.3921C309.938 23.6887 311.157 21.1076 312.297 20.1355C312.288 20.118 312.276 20.0605 312.268 20.0428C312.574 19.8278 312.835 19.6585 312.967 19.5736C315.376 18.0202 312.959 18.3461 313.822 17.4569C314.677 16.5446 316.246 17.0402 316.662 16.1512C317.526 14.3215 316.657 12.5578 316.262 11.0803C316.092 10.4898 313.875 11.6597 313.796 11.5929C312.817 10.6194 314.887 8.54571 310.012 9.51697C321.737 4.49532 308.604 9.21494 310.407 6.71989C310.555 6.52531 316.135 4.26116 317.159 4.48603C318.182 4.71259 316.698 6.14773 318.252 6.41941C318.613 6.46999 324.299 5.65783 324.669 5.68747C327.574 5.93856 319.093 8.94557 318.641 9.15206C313.793 11.4636 319.952 10.7559 320.458 10.9589C322.761 11.8375 321.944 13.4719 323.631 14.2939C324.722 14.8289 330.391 13.2248 330.408 13.9075C330.416 14.1618 330.329 14.429 330.179 14.7023L330.068 14.3465C327.712 13.2752 323.114 17.2248 328.245 13.3982C329.502 12.5129 333.875 7.78552 330.718 11.784C330.485 12.0064 327.906 15.942 330.354 14.203C330.656 13.9786 331.913 12.5847 332.091 12.5334C333.277 12.2301 332.647 13.6709 333.793 13.7436C334.931 13.8082 336.538 13.8381 336.952 15.1255C337.198 15.8911 335.379 19.0187 334.986 19.8422C333.857 22.2101 337.486 20.1733 335.674 22.6209C333.814 25.0394 329.774 27.3589 329.194 29.6213C332.881 26.43 336.719 23.2171 340.476 20.0641C342.742 22.9186 343.529 26.6437 345.528 29.3726C345.785 29.7172 347.759 27.9352 348.098 28.282C349.502 29.7314 348.746 32.147 350.318 33.49C350.44 33.5948 350.581 33.6919 350.737 33.7832C352.145 34.5569 354.902 34.8585 356.107 35.9211C351.507 39.2232 354.15 40.4587 354.316 42.1905C354.378 42.7974 352.983 43.3265 352.682 43.8739C351.573 45.928 355.891 43.4579 356.769 43.5635C360.517 44.0599 350.146 48.1799 351.061 49.9008C351.1 49.972 357.153 49.2576 357.56 49.306C360.218 49.6156 355.662 50.1533 355.475 50.9703C355.127 52.4609 354.047 53.736 356.145 54.6168C356.767 54.878 360.624 54.8168 358.114 56.4468C357.785 56.6601 355.882 57.1559 355.796 57.2737C354.401 59.3433 360.338 57.6506 362.613 58.0096C364.882 58.3533 361.137 60.8521 360.023 61.4486C357.137 62.9731 358.562 61.2426 358.248 61.2777C354.537 61.7784 355.426 62.6189 355.308 63.4119C349.477 65.0511 350.088 65.9634 355.216 64.2506C355.775 64.0598 355.079 63.6274 355.308 63.4119C361.224 62.54 362.28 63.5868 357.196 66.1657C354.811 67.3716 351.74 67.5715 353.235 69.0374C353.911 69.7126 357.896 68.4413 359.173 68.9045C362.086 69.9599 358.767 72.9445 359.724 74.4884C360.074 75.061 362.178 73.9792 362.494 74.3577C363.334 75.3256 361.861 76.6579 362.949 77.6064C363.05 77.6894 365.343 76.9705 365.442 77.3069C366.245 79.8785 365.19 82.5059 365.64 85.209C365.869 86.5644 367.574 88.6419 367.553 90.0971C367.517 92.5184 364.558 95.9699 365.71 97.8738C366.446 99.0789 368.764 98.4307 370.46 98.7422C373.75 99.35 368.454 102.159 367.622 102.522C367.594 102.533 366.871 101.508 365.746 102.281C363.269 103.003 367.609 102.511 367.622 102.522C367.087 102.768 366.882 105.096 367.4 105.492C367.682 105.703 369.904 105.241 370.009 105.358C371.157 106.619 371.986 107.955 372.476 109.375C373.015 110.898 373.133 112.542 372.792 114.23C372.754 114.289 370.232 114.542 370.173 114.676C369.286 116.56 372.507 117.309 374.519 118.536C376.527 119.741 376.061 120.985 371.853 122.386C372.536 123.442 370.814 125.2 369.765 126.251C368.716 127.293 373.627 126.834 373.733 126.902C377.129 129.021 374.493 130.774 374.352 133.402C374.275 134.63 375.261 136.994 375.942 138.252C376.489 139.242 375.409 139.996 376.249 140.88C376.362 141 378.53 140.63 378.618 140.661C381.347 141.457 375.955 141.518 375.026 141.844C371.648 143.031 369.855 143.721 371.631 144.909C372.038 145.182 379.822 145.288 380.333 145.823C380.983 146.519 378.198 146.523 378.948 147.246C379.01 147.308 380.708 147.116 380.684 147.615C380.592 149.88 379.859 152.487 380.262 154.787C380.311 155.105 382.967 154.425 383.082 154.88C383.619 157.024 383.754 159.42 382.694 161.656C382.425 162.208 380.504 162.063 379.954 162.23C376.627 163.25 381.653 163.765 381.763 163.921C384.5 167.554 380.31 170.937 382.792 174.693C382.937 174.902 388.374 176.073 383.902 177.216C383.605 177.293 379.027 178.432 382.258 178.797C382.46 178.82 384.81 178.154 384.636 178.97C384.463 179.786 386.171 180.93 383.639 182.243C382.841 182.66 378.279 183.87 382.06 184.583C382.323 184.626 390.809 185.514 385.096 186.57C384.155 186.742 378.051 187.159 381.279 188.121C381.905 188.304 383.229 187.764 384.13 188.311C385.518 189.148 383.989 190.539 386.802 191.485C387.299 191.649 391.509 192.177 388.424 193.127C387.941 193.275 385.888 193.235 385.69 193.62C384.739 195.447 386.248 197.171 384.978 199.048C384.533 199.713 381.216 199.653 380.385 200.373C379.554 201.094 378.808 202.473 380.366 203.039C381.924 203.606 387.113 202.452 387.612 203.446C389.779 207.762 387.029 212.413 386.896 216.891C386.876 217.556 388.715 216.874 388.82 217.845C389.216 221.419 391.401 227.503 387.61 230.88C384.575 233.58 381.936 230.607 380.758 232.592C380.197 233.546 386.366 234.148 386.573 234.358C388.665 236.405 386.054 238.076 387.005 239.979C387.202 240.372 389.653 239.823 389.793 240.16C390.295 241.308 389.265 242.608 389.534 243.715C389.66 244.211 391.545 244.005 391.427 244.476C391.166 245.605 390.429 246.635 388.72 247.817C388.564 247.925 386.173 247.4 386.133 248.223C386.075 249.554 384.421 251.292 386.312 252.719C386.88 253.141 391.203 252.919 388.273 254.057C387.66 254.295 382.456 254.322 387.003 255.205C387.758 255.351 393.911 256.931 390.062 258.079C389.049 258.382 384.835 259.237 385.531 259.745C385.641 259.813 387.948 259.395 388.198 259.834C389.039 261.379 388.877 263.063 389.687 264.664C389.908 265.091 392.278 264.319 392.53 264.96C393.227 266.715 392.724 268.994 392.054 270.782C391.802 271.441 389.791 271.088 389.576 271.145C386.087 272.063 390.864 272.286 391.153 272.524C392.886 274.005 390.705 275.311 391.36 276.719C391.534 277.108 393.79 276.728 393.996 276.798C396.008 277.532 391.907 277.099 391.481 277.636C390.272 279.129 390.523 280.771 390.872 282.222C391.004 282.757 393.61 282.045 393.698 282.526C393.795 283.013 393.872 283.503 393.925 283.995C394.185 286.43 393.896 288.85 392.777 291.249C392.517 291.789 390.48 291.526 390.021 291.653C386.81 292.525 391.263 293.478 391.693 293.72C393.652 294.806 391.875 295.333 392.243 296.351C394.07 301.306 393.051 307.571 392.419 312.329C391.609 318.535 389.758 323.348 390.324 329.227C390.357 329.603 393.05 329.194 393.113 329.519C393.808 333.697 392.78 337.801 393.569 341.985C393.629 342.326 396.185 341.828 396.367 342.376C396.758 343.505 396.621 344.952 395.804 346.089C395.41 346.645 393.217 345.899 392.866 346.458C392.043 347.753 391.858 349.168 392.264 350.502C392.442 351.071 395.059 350.221 395.087 350.96C395.329 356.02 395.739 361 392.289 366.052C392.052 366.399 386.734 366.637 387.743 367.389C389.217 367.464 390.952 367.485 392.528 367.53C393.278 374.877 391.292 382.104 390.829 389.414C390.81 389.723 393.638 389.257 393.616 389.856C393.489 393.314 394.18 396.701 391.283 400.15C390.999 400.492 386.053 400.172 386.772 401.226C386.904 401.412 387.519 402.983 388.583 403.415C388.743 403.474 391.063 403.258 391.115 403.76C391.381 406.679 390.762 409.707 389.26 412.555C389.013 413.016 386.568 412.442 386.37 412.769C384.991 415.087 386.781 417.708 384.475 419.886C382.923 421.344 378.687 420.652 374.474 421.319C373.88 421.413 373.756 422.342 371.319 422.313C365.188 422.242 358.494 421.578 351.958 421.556C350.55 421.55 352.026 422.845 348.65 421.999C348.424 421.94 347.325 421 346.179 420.741C345.387 420.561 342.9 420.761 341.89 420.413C340.88 420.064 342.968 419.782 341.786 419.22C340.589 418.658 337.763 418.798 337.462 417.742ZM365.069 130.913C362.814 132.016 371.443 131.134 369.277 130.475C369.162 130.444 365.179 130.857 365.069 130.913ZM338.085 30.413C335.654 33.6005 340.788 31.1757 342.719 28.7512C344.605 26.2765 338.792 29.4071 338.085 30.413ZM327.537 22.6519C326.442 25.7603 335.147 17.067 332.26 17.7622C332.094 17.8001 327.598 22.4691 327.537 22.6519ZM373.399 417.573C373.283 417.581 373.15 418.247 373.264 418.267C376.006 418.71 376.271 417.378 373.399 417.573ZM319.087 17.9496C317.599 18.7822 319.687 18.6936 321.414 17.5112C322.385 16.9478 321.91 17.1084 320.854 17.3479L320.893 17.4711C320.409 17.5122 319.841 17.66 319.291 17.9486L319.265 17.8655C319.206 17.8923 319.146 17.9203 319.087 17.9496ZM360.301 175.02C360.173 175.045 360.101 175.535 360.827 175.459C363.168 175.215 362.446 174.606 360.301 175.02ZM312.916 0.0388721C313.008 0.616774 312.694 1.28067 312.138 1.94197C310.026 4.32018 304.698 7.40726 304.383 4.52685C304.382 4.48884 304.382 4.44963 304.384 4.40915C304.392 4.18249 304.905 4.14558 305.569 4.13157C306.667 4.21519 308.122 4.21577 308.497 3.59462C308.608 3.40542 308.645 3.24703 308.625 3.113C308.478 2.01694 303.619 2.78367 306.163 0.692087C306.682 0.26899 312.912 -0.128058 312.931 0.039108C312.926 0.0390291 312.921 0.0389508 312.916 0.0388721ZM354.777 132.6C354.665 132.63 354.634 133.304 354.749 133.307C357.526 133.348 357.589 131.986 354.777 132.6ZM357.309 203.385C357.069 203.44 356.96 204.994 357.188 205.027C361.74 205.483 361.973 202.333 357.309 203.385ZM342.161 89.4176C339.307 89.2036 338.841 88.4804 342.149 87.2522C342.104 88.0088 342.2 88.6769 342.161 89.4176Z" fill="#FF0000"/>
<path d="M81.6139 21.8548C82.8482 22.8611 83.0461 24.8751 82.8061 26.597C82.7337 27.1352 81.4199 27.5265 81.3153 27.9249C81.1124 28.7034 81.9576 28.9199 81.6613 29.736C81.5571 30.0094 79.5263 30.7317 79.4611 30.9968C79.1179 32.4428 80.0858 33.1743 80.1899 34.4159C80.7002 40.5337 82.4659 45.9181 84.168 51.5146C84.7303 53.3582 84.0282 56.2967 85.6695 57.6701C85.8628 57.8295 87.4806 56.8635 87.6386 56.8328C90.0641 56.3781 86.5723 57.8794 86.3228 58.505C85.3411 60.9821 86.0771 62.8233 87.4947 64.0154C88.1029 64.5202 91.1031 62.1832 89.5647 63.7817C89.4614 63.891 87.5984 64.6301 87.4987 64.9039C87.276 65.523 87.9821 66.125 87.9997 66.508C88.0247 67.2512 88.0933 67.3415 88.3625 67.9197C88.715 68.7175 88.3039 70.0931 89.1325 70.7185C89.3147 70.8493 91.015 69.6815 91.4698 69.8054C91.924 69.9298 92.1536 70.7569 91.8543 71.2296C91.5549 71.7025 90.0696 72.3302 89.7647 72.5434C87.1875 74.3346 91.4652 73.2303 91.6168 73.2917C94.276 74.4876 92.9965 77.3518 93.9948 79.2507C94.7568 80.6887 96.2815 81.8515 96.9039 83.2706C97.6379 84.964 97.3904 86.8643 98.4002 88.354C98.5047 88.5122 100.523 87.1855 100.655 87.3761C102.053 89.4029 102.969 91.6601 102.703 94.5742C102.675 94.8677 100.668 95.5982 100.529 95.952C99.716 98.0936 97.206 102.193 105.693 98.5429C105.866 99.6029 106.133 100.854 104.951 102.545C104.191 103.635 101.903 104.254 103.111 104.407C103.381 104.443 105.04 103.28 105.312 103.408C106.453 103.943 106.424 105.236 107.827 105.609C108.116 105.682 109.664 104.751 109.976 104.642C112.51 103.779 109.113 106.618 108.925 106.928C107.533 109.263 108.83 109.67 109.402 110.792C109.534 111.053 111.471 109.554 111.674 109.762C112.695 110.853 113.263 112.264 113.042 114.034C112.988 114.432 111.052 115.211 110.935 115.454C110.441 116.514 113.893 114.689 113.485 115.666C113.403 115.869 111.835 116.69 111.679 116.809C109.236 118.674 113.142 116.797 113.274 116.834C115.03 117.262 111.541 120.23 112.71 120.96C112.853 121.044 114.617 119.629 114.902 119.935C116.811 121.965 117.747 124.74 117.608 127.974C117.589 128.475 115.996 129.088 115.832 129.217C113.283 131.26 117.141 129.256 117.351 129.287C118.914 129.598 116.334 132.357 121.125 130.288C121.343 131.532 121.831 132.612 122.408 133.636C124.067 136.579 126.45 139.031 125.37 143.717C125.356 143.794 123.5 144.858 123.479 145.008C123.219 146.826 125.872 144.811 129.783 143.385C130.764 143.026 127.022 146.271 126.755 146.519C125.765 147.428 122.967 148.953 122.793 149.156C121.444 150.781 130.217 144.99 130.678 145.695C130.678 145.727 128.993 146.686 128.87 146.85C128.484 147.363 129.248 147.129 128.806 147.672C127.783 148.926 123.599 151.861 126.505 150.876C126.881 150.746 131.797 147.369 131.972 148.154C132.039 148.47 132.852 149.526 132.734 150.05C132.617 150.574 130.87 151.415 130.815 151.483C129.247 153.722 128.157 153.981 125.295 156.475C122.447 158.963 129.831 153.925 130.777 153.548C131.721 153.172 130.379 154.944 129.872 155.498C129.364 156.052 128.221 156.537 127.966 156.9C126.313 159.285 131.925 154.842 133.302 154.352C136.56 153.187 131.399 157.395 131.283 158.393C131.252 158.662 132.414 157.684 132.634 157.758C133.485 158.062 132.01 159.577 134.048 159.211C134.381 159.152 138.061 157.484 135.875 159.474C135.559 159.761 134.092 160.538 133.958 161.002C133.757 161.698 133.922 162.589 134.661 162.696C135.206 162.773 137.224 160.898 136.784 161.756C136.586 162.138 135.053 162.714 134.794 163.358C134.533 164.001 135.144 164.777 135.4 165.056C135.656 165.333 137.249 164.003 137.381 163.95C138.142 163.653 139.366 163.681 139.4 163.736C141.406 166.231 140.205 170.623 142.935 172.532C143.146 172.683 144.841 171.306 144.892 171.316C146.116 171.48 140.989 174.246 139.733 175.832C143.31 173.239 142.85 173.978 143.584 174.183C143.941 174.281 145.255 173.175 145.414 173.096C147.786 171.955 145.202 174.116 144.683 174.572C142.773 176.248 145.393 174.787 144.119 175.91C142.855 177.027 140.569 178.092 140.92 178.539C142.307 177.761 145.452 175.047 146.246 175.014C149.24 174.874 148.328 179.209 148.81 180.471C149.288 181.728 149.768 181.898 149.738 182.843C149.692 184.561 151.899 182.374 153.535 182.25C155.17 182.126 148.79 186.174 147.541 187.216C146.292 188.256 147.726 187.393 147.088 188.033C146.45 188.672 145.364 189.05 145.296 189.53C145.228 190.01 148.135 189.116 149.587 188.231C152.662 186.353 155.475 183.805 154.939 185.332C154.906 185.421 153.193 186.436 153.149 186.719C152.85 188.923 153.769 190.361 153.619 192.459C153.596 192.749 151.691 193.881 151.658 194.065C151.311 195.994 154.043 193.422 157.826 191.597C153.273 194.689 150.79 197 151.367 197.85C151.712 198.362 153.59 196.859 155.198 196.192C155.682 195.989 154.607 197.316 155.568 196.715C158.709 194.754 161.81 191.99 161.101 193.813C161.065 193.896 159.344 194.967 159.339 195.169C159.302 196.479 162.489 194.292 163.533 194.928C164.351 195.426 163.358 198.057 163.65 199.103C158.651 202.745 160.354 202.673 164.016 200.453C164.253 201.071 164.87 201.503 164.768 202.358C164.734 202.652 163.208 203.599 163.069 203.736C160.873 205.873 164.38 203.639 164.594 203.654C166.76 203.928 164.978 206.808 168.306 206.14C168.426 206.116 171.93 203.628 169.64 205.807C169.481 205.956 167.624 206.732 167.91 207.373C168.197 208.015 167.103 210.407 169.275 209.993C169.798 209.893 172.943 208.279 171.029 210.272C170.769 210.542 169.74 211.223 169.242 211.703C167.657 213.233 171.241 210.775 168.485 213.251C165.729 215.728 163.939 217.951 166.545 217.19C166.622 217.169 169.517 215.295 169.656 215.573C169.875 216.018 169.708 216.994 170.023 217.379C170.174 217.563 171.798 216.164 171.854 216.174C173.784 216.762 172.929 218.804 173.31 220.7C173.373 221.045 176.251 220.03 174.775 221.908C173.154 223.954 164.326 229.666 167.244 229.401C168.268 229.325 176.803 223.827 175.858 225.624C175.718 225.904 175.356 226.355 174.711 227.021C177.368 227.736 175.742 231.477 178.993 231.782C179.138 231.798 182.317 229.851 182.411 230.064C182.539 230.379 181.259 231.569 181.311 231.835C181.492 232.968 183.253 232.862 183.641 233.79C183.798 234.149 182.267 235.097 182.448 235.517C182.624 235.93 184.719 234.792 184.15 235.955C183.707 236.829 180.058 240.031 179.947 240.842C183.833 238.082 183.995 238.476 185.452 238.352C185.733 238.325 186.996 237.239 187.198 237.176C188.05 236.899 187.081 237.907 187.994 237.585C188.213 237.508 189.542 236.568 189.797 236.452C192.006 235.423 189.449 238.151 188.997 238.615C187.283 240.387 189.159 239.374 188.585 240.217C188.01 241.058 186.726 241.302 186.49 241.975C186.02 243.392 186.873 244.163 187.311 244.942C187.494 245.247 189.157 243.827 189.225 243.842C190.103 244.155 188.584 246.043 192.427 244.009C183.36 250.59 193.58 243.782 192.295 245.922C192.191 246.095 187.791 249.036 186.97 249.197C186.156 249.366 187.282 248.064 186.036 248.374C185.74 248.441 181.293 250.708 181.003 250.815C178.719 251.624 185.233 247.14 185.573 246.866C189.245 243.927 184.41 246.319 184.006 246.382C182.121 246.624 182.622 245.395 181.212 245.485C180.305 245.551 176.03 248.477 175.952 248.09C175.683 246.799 181.307 242.237 175.534 244.936C174.302 245.509 169.831 248.991 172.943 245.689C173.144 245.488 176.044 242.543 173.738 243.751C173.447 243.902 172.109 244.868 171.959 244.898C170.988 245.083 171.867 244.056 171.096 244.064C170.322 244.068 169.21 244.133 169.364 243.393C169.449 242.941 171.688 240.793 172.202 240.221C173.689 238.58 170.555 240.316 172.511 238.543C174.478 236.761 178.036 234.838 178.978 233.237C175.502 235.747 171.913 238.294 168.408 240.805C167.62 239.473 167.794 237.369 166.717 236.229C166.578 236.088 164.843 237.619 164.646 237.502C163.808 236.983 164.697 235.422 163.607 235.051C163.502 235.017 163.372 234.999 163.224 234.994C162.195 234.982 160.234 235.592 159.403 235.378C163.064 232.08 161.081 232.203 160.944 231.269C160.894 230.943 161.963 230.183 162.186 229.767C163.005 228.22 159.738 231.091 159.067 231.332C156.202 232.359 164.009 226.414 163.193 225.725C163.153 225.687 158.551 228.265 158.233 228.383C156.17 229.168 159.634 227.216 159.718 226.682C159.866 225.698 160.594 224.584 158.884 224.853C158.381 224.936 155.427 226.428 157.173 224.551C157.402 224.305 158.809 223.3 158.861 223.2C159.7 221.5 155.327 224.723 153.552 225.42C151.778 226.117 154.319 223.248 155.093 222.478C157.095 220.484 156.24 222.018 156.476 221.876C159.256 220.142 158.461 220.015 158.432 219.513C162.671 216.288 162.059 216 158.381 219C157.979 219.329 158.576 219.3 158.432 219.513C154.014 222.329 153.083 222.198 156.565 218.696C158.2 217.058 160.528 215.717 159.132 215.474C158.5 215.361 155.661 217.69 154.611 217.951C152.211 218.545 154.22 215.507 153.207 215.045C152.838 214.874 151.43 216.346 151.122 216.271C150.3 216.075 151.162 214.706 150.163 214.652C150.07 214.647 148.463 216.01 148.322 215.864C147.219 214.779 147.506 212.897 146.59 211.586C146.14 210.943 144.394 210.521 144.106 209.733C143.59 208.363 145.068 205.202 143.76 204.666C142.917 204.313 141.32 205.692 139.966 206.265C137.344 207.379 140.701 203.536 141.235 202.961C141.253 202.942 142.047 203.194 142.711 202.271C144.41 200.785 141.247 202.961 141.235 202.961C141.577 202.586 141.181 201.224 140.703 201.248C140.441 201.261 138.874 202.491 138.767 202.476C136.277 202.071 134.82 200.912 134.516 198.889C134.53 198.839 136.369 197.581 136.379 197.481C136.57 196.047 133.971 197.096 132.148 197.326C130.327 197.558 130.362 196.673 133.186 194.045C132.417 193.794 133.253 192.051 133.778 191.017C134.303 189.983 130.719 192.425 130.621 192.435C127.527 192.81 129.061 190.679 128.488 189.192C128.226 188.488 126.88 187.661 126.035 187.279C125.36 186.98 125.979 186.091 125.117 185.99C125.001 185.975 123.462 187.143 123.387 187.166C121.122 187.956 125.174 185.515 125.79 184.925C128.031 182.778 129.204 181.605 127.549 181.749C127.17 181.783 121.265 185.192 120.741 185.134C120.069 185.049 122.17 183.804 121.416 183.751C121.353 183.745 120.121 184.606 120.01 184.328C119.474 183.046 119.353 181.326 118.433 180.248C118.312 180.097 116.485 181.647 116.277 181.451C115.301 180.525 114.565 179.287 114.771 177.603C114.828 177.184 116.321 176.411 116.692 176.077C118.941 174.049 115 175.999 114.876 175.963C111.832 175.198 114.104 171.508 111.223 170.569C111.061 170.524 106.614 172.27 109.704 169.682C109.908 169.508 113.082 166.879 110.531 168.101C110.371 168.177 108.764 169.571 108.678 169.052C108.592 168.533 106.988 168.661 108.561 166.834C109.055 166.257 112.201 163.6 109.136 164.868C108.924 164.961 102.23 168.187 106.296 165.116C106.966 164.611 111.502 161.719 108.786 162.604C108.261 162.777 107.397 163.649 106.564 163.744C105.282 163.891 106.074 162.467 103.679 163.177C103.256 163.304 99.903 164.844 102.001 162.984C102.33 162.693 103.906 161.824 103.954 161.528C104.19 160.116 102.579 159.83 103.046 158.255C103.209 157.699 105.76 156.299 106.203 155.547C106.646 154.795 106.85 153.724 105.509 154.087C104.166 154.449 100.504 157.313 99.856 156.984C97.0881 155.572 97.8768 151.938 96.871 149.428C96.8539 149.385 96.8362 149.343 96.8181 149.301C96.6568 148.927 95.4236 150.082 95.0846 149.592C93.8296 147.797 90.5313 145.362 92.5719 141.924C94.2076 139.174 97.0262 139.7 97.4163 138.122C97.6009 137.366 92.6758 139.613 92.4607 139.583C90.3084 139.335 91.888 137.328 90.6569 136.683C90.4019 136.549 88.6469 137.866 88.4504 137.74C87.7617 137.317 88.221 136.18 87.7225 135.682C87.4946 135.462 86.0866 136.353 86.055 136.045C85.963 135.317 86.2666 134.45 87.2857 133.098C87.3787 132.975 89.3704 132.278 89.1877 131.812C88.8871 131.06 89.7204 129.428 87.8832 129.427C87.3325 129.43 84.0302 131.323 86.0129 129.5C86.4267 129.118 90.4656 126.974 86.7022 128.352C86.0773 128.582 80.8813 130.23 83.5789 128.031C84.2886 127.452 87.3469 125.266 86.6741 125.273C86.5706 125.281 84.8837 126.45 84.5754 126.312C83.5196 125.808 83.2117 124.825 82.1677 124.281C81.8853 124.137 80.238 125.522 79.8756 125.274C78.8759 124.593 78.6816 123.15 78.7417 121.902C78.7674 121.44 80.4283 120.819 80.5808 120.701C83.0652 118.789 79.2802 120.599 78.9929 120.585C77.257 120.476 78.6269 118.893 77.7509 118.387C77.5138 118.245 75.8505 119.362 75.6717 119.407C73.9103 119.817 77.2246 118.401 77.4185 117.936C77.9725 116.627 77.3615 115.853 76.7116 115.201C76.4701 114.963 74.6183 116.399 74.4248 116.172C73.2407 114.847 72.5726 113.162 72.8898 111.072C72.9533 110.676 74.6151 110.001 74.9414 109.749C77.2285 107.992 73.4962 109.259 73.0973 109.299C71.2791 109.49 72.5368 108.501 71.9855 108.099C69.2661 106.144 68.4383 102.37 67.6876 99.5649C66.6987 95.9116 66.8817 92.5974 64.8794 89.6883C64.7541 89.5023 62.7514 90.7918 62.6162 90.6452C60.9668 88.7013 60.6742 86.1049 58.9346 84.2055C58.7955 84.0475 56.9273 85.3322 56.6367 85.1127C56.0264 84.6697 55.7484 83.8555 56.0803 82.9251C56.2385 82.4733 58.1589 81.9937 58.2831 81.5572C58.5763 80.5387 58.3434 79.7265 57.6625 79.1805C57.3683 78.9503 55.5485 80.4455 55.3258 80.0648C53.7669 77.4935 52.0875 75.039 53.3969 71.0057C53.487 70.7289 57.5839 68.4742 56.5861 68.4827C55.4116 69.0336 54.0482 69.718 52.8021 70.3254C50.1876 66.7697 49.726 62.1997 48.0256 58.1969C47.9534 58.0283 45.8744 59.4096 45.7233 59.0887C44.8463 57.2326 43.3493 55.749 44.6306 52.7816C44.7546 52.4887 48.709 50.6592 47.8476 50.4013C47.692 50.3576 46.7637 49.7874 45.8101 49.9912C45.6679 50.0252 43.9181 51.074 43.7337 50.8336C42.6941 49.4208 42.3127 47.5933 42.6686 45.501C42.7296 45.1616 44.8031 44.4721 44.8634 44.2222C45.2762 42.4564 43.1267 41.8133 44.3009 39.7449C45.094 38.357 48.5995 37.0051 51.6963 34.9539C52.1332 34.6643 51.9626 34.1301 53.8738 33.1596C58.6792 30.7177 64.0951 28.3575 69.2031 25.7262C70.3036 25.1599 68.7798 25.0805 71.6578 24.1573C71.8509 24.0966 72.9792 24.1426 73.9482 23.8145C74.6184 23.5883 76.5016 22.478 77.3905 22.2514C78.2787 22.0251 76.7298 23.0164 77.8142 22.8317C78.9103 22.6412 81.0757 21.4249 81.6139 21.8548ZM136.126 186.394C137.542 184.789 131.265 189.121 133.067 188.511C133.162 188.476 136.057 186.474 136.126 186.394ZM172.444 233.984C174.762 231.459 170.532 234.056 168.701 235.951C166.885 237.861 171.74 234.747 172.444 233.984ZM178.343 237.89C180.04 235.712 171.227 241.983 173.467 241.346C173.594 241.311 178.244 238.016 178.343 237.89ZM53.6113 36.4734C53.6992 36.4226 53.6119 36.0211 53.5176 36.0568C51.2498 36.934 51.4258 37.7362 53.6113 36.4734ZM184.349 241.681C185.407 240.644 183.639 241.07 182.321 242.356C181.26 243.389 183.029 242.968 184.349 241.681ZM128.198 160.476C128.288 160.406 128.215 160.112 127.683 160.473C125.973 161.637 126.68 161.645 128.198 160.476ZM190.599 250.862C190.068 249.237 197.092 243.622 197.217 245.725C197.237 246.102 194.422 246.626 193.96 247.409C193.123 248.839 198.143 246.293 196 248.528C195.614 248.948 190.617 250.974 190.587 250.866C190.591 250.865 190.595 250.863 190.599 250.862ZM143.45 180.884C143.527 180.817 143.377 180.439 143.289 180.488C141.186 181.707 141.488 182.472 143.45 180.884ZM123.046 143.952C123.215 143.818 122.894 142.939 122.711 143.02C119.112 144.739 119.756 146.531 123.046 143.952ZM163.526 199.213C165.746 198.121 166.28 198.364 164.017 200.45C163.896 200.011 163.661 199.65 163.526 199.213Z" fill="#FF0000"/>
<path d="M360.378 50.3879C360.146 52.1723 358.457 53.7478 356.791 54.735C356.272 55.0459 355.22 54.1561 354.809 54.3411C354.005 54.704 354.263 55.6022 353.375 55.9093C353.075 56.0073 351.346 54.7121 351.074 54.8387C349.599 55.5406 349.459 56.9089 348.401 57.865C343.188 62.5774 339.256 67.8919 335.032 73.2616C333.641 75.0344 330.601 76.4 330.174 78.8141C330.125 79.0979 331.828 79.9079 331.936 80.0304C333.577 81.921 330.438 79.7735 329.739 79.9702C326.971 80.7569 325.652 82.6533 325.255 84.7429C325.093 85.6324 328.737 86.8063 326.499 86.4721C326.346 86.4508 324.741 85.2461 324.439 85.3376C323.757 85.5478 323.551 86.5919 323.206 86.8616C322.791 87.1789 322.612 87.3483 322.441 87.5783C322.336 87.7211 322.233 87.8876 322.078 88.1296C321.512 88.9823 320.038 89.5089 319.859 90.6834C319.826 90.936 321.738 91.7273 321.843 92.2263C321.949 92.7247 321.287 93.4856 320.701 93.5212C320.116 93.5561 318.814 92.6018 318.468 92.4612C315.558 91.2612 318.647 94.4757 318.661 94.6569C318.814 97.8983 315.512 98.5844 314.19 100.73C313.19 102.362 312.785 104.535 311.715 106.021C310.432 107.789 308.505 108.749 307.519 110.631C307.412 110.828 309.576 111.912 309.45 112.156C308.107 114.754 306.293 117.042 303.331 118.554C303.033 118.704 301.484 117.22 301.081 117.299C298.649 117.819 293.655 117.754 300.641 123.822C299.662 124.617 298.518 125.618 296.38 125.443C295.004 125.33 293.504 123.46 293.822 124.718C293.891 125.001 295.684 125.953 295.662 126.29C295.566 127.712 294.263 128.419 294.407 130.007C294.44 130.333 295.946 131.33 296.17 131.576C297.966 133.59 293.856 131.849 293.477 131.832C290.618 131.76 290.674 133.252 289.727 134.433C289.507 134.706 291.701 135.819 291.558 136.134C290.786 137.755 289.512 139.094 287.606 139.806C287.178 139.96 285.757 138.42 285.469 138.429C284.221 138.477 287.198 141.006 286.052 141.105C285.815 141.127 284.478 139.966 284.307 139.87C281.621 138.356 284.773 141.336 284.773 141.491C284.781 141.672 284.754 141.821 284.697 141.941C284.125 143.158 280.686 141.577 280.31 142.964C280.264 143.15 282.249 144.253 282.011 144.692C280.424 147.628 277.706 149.9 274.256 151.149C273.721 151.345 272.684 149.975 272.507 149.863C269.729 148.125 272.789 151.216 272.804 151.447C272.847 153.188 269.334 151.671 272.626 155.747C267.692 158.611 266.206 164.507 259.22 165.248C259.135 165.261 257.647 163.723 257.485 163.755C255.511 164.124 258.158 166.151 260.419 169.689C260.986 170.577 256.831 167.85 256.518 167.659C255.366 166.954 253.216 164.597 252.968 164.488C250.993 163.658 258.798 170.7 258.136 171.423C258.102 171.433 256.767 170.027 256.57 169.957C255.953 169.736 256.345 170.444 255.687 170.176C254.166 169.552 250.269 166.243 251.863 168.902C252.072 169.245 256.575 173.156 255.779 173.607C255.457 173.784 254.495 174.985 253.92 175.042C253.345 175.1 252.125 173.586 252.043 173.552C249.381 172.7 248.902 171.663 245.726 169.564C242.558 167.477 249.281 173.369 249.86 174.216C250.436 175.061 248.313 174.282 247.631 173.949C246.95 173.615 246.22 172.602 245.789 172.464C242.955 171.579 248.716 175.841 249.497 177.093C251.359 180.045 245.929 176.17 244.86 176.393C244.571 176.453 245.826 177.314 245.791 177.566C245.637 178.548 243.755 177.552 244.546 179.52C244.673 179.843 247.157 183.051 244.637 181.489C244.273 181.264 243.164 180.023 242.651 180.047C241.883 180.081 240.977 180.569 241.019 181.362C241.051 181.949 243.423 183.368 242.437 183.214C241.997 183.145 241.081 181.771 240.354 181.73C239.627 181.689 238.945 182.588 238.705 182.954C238.467 183.318 240.189 184.481 240.272 184.598C240.335 184.689 240.394 184.791 240.448 184.9C240.798 185.594 240.964 186.548 240.922 186.594C238.765 189.52 233.93 189.906 232.567 193.415C232.458 193.687 234.268 194.913 234.268 194.969C234.376 196.286 230.351 192.057 228.42 191.364C231.918 194.064 231.047 193.87 231 194.701C230.98 195.104 232.424 196.038 232.542 196.171C234.266 198.173 231.44 196.333 230.849 195.972C228.678 194.643 230.789 196.78 229.335 195.896C227.889 195.021 226.264 193.076 225.881 193.607C227.003 194.737 230.534 196.938 230.75 197.74C231.576 200.764 226.893 201.469 225.706 202.446C224.52 203.419 224.458 203.976 223.471 204.316C221.692 204.928 224.471 206.346 224.987 207.975C225.505 209.604 219.814 204.628 218.442 203.751C217.072 202.873 218.303 204.01 217.491 203.604C216.68 203.198 216.032 202.23 215.52 202.348C215.005 202.47 216.618 205.107 217.88 206.249C220.55 208.672 223.85 210.564 222.149 210.609C222.049 210.61 220.593 209.248 220.29 209.314C217.948 209.867 216.691 211.369 214.49 212.046C214.184 212.139 212.56 210.627 212.361 210.666C210.291 211.071 213.608 212.852 216.399 216.02C212.114 212.565 209.132 210.931 208.398 211.857C207.949 212.422 209.949 213.76 211.031 215.142C211.357 215.558 209.735 214.974 210.587 215.722C213.37 218.168 216.967 220.26 214.92 220.254C214.825 220.25 213.304 218.908 213.096 218.983C211.748 219.452 214.753 221.887 214.372 223.187C214.061 224.224 211.107 224.26 210.113 224.966C205.141 221.287 205.647 222.99 208.817 225.879C208.233 226.38 207.951 227.174 207.049 227.408C206.742 227.488 205.392 226.301 205.217 226.212C202.489 224.801 205.636 227.525 205.675 227.749C205.919 230.096 202.544 229.388 204.042 232.553C204.056 232.58 204.264 232.751 204.533 232.974C205.382 233.682 206.839 234.917 204.711 233.793C204.519 233.689 203.266 232.088 202.677 232.64C202.092 233.187 199.357 233.027 200.312 235.093C200.541 235.592 202.965 238.185 200.443 237.016C200.102 236.855 199.155 236.063 198.54 235.742C196.581 234.719 199.975 237.435 196.771 235.565C193.557 233.708 190.86 232.714 192.251 235.12C192.29 235.192 194.908 237.441 194.661 237.685C194.258 238.082 193.22 238.284 192.893 238.767C192.737 238.999 194.565 240.121 194.568 240.183C194.432 242.391 192.117 242.323 190.273 243.449C189.928 243.657 191.672 246.215 189.395 245.431C186.895 244.585 178.858 237.789 179.817 240.739C180.191 241.935 190.522 250.372 184.143 247.461C184.116 250.489 179.825 250.526 180.569 254.061C180.597 254.226 183.638 256.388 183.472 256.579C183.217 256.862 181.598 256.204 181.362 256.401C180.508 257.066 180.978 258.327 180.83 259.203C180.796 259.388 180.733 259.563 180.627 259.722C180.383 260.095 178.782 259.269 178.493 259.702C178.205 260.132 180.244 261.38 178.916 261.573C177.906 261.717 173.272 260.251 172.479 260.652C176.829 262.602 176.545 263.002 177.349 264.294C177.505 264.543 179.093 265.054 179.246 265.206C179.9 265.841 178.524 265.552 179.255 266.201C179.43 266.358 180.918 267.018 181.146 267.183C183.138 268.606 179.459 267.882 178.816 267.763C176.377 267.304 178.223 268.374 177.184 268.384C176.143 268.401 175.288 267.357 174.562 267.592C173.346 267.992 172.939 268.966 172.601 269.846L172.765 269.499C172.65 269.691 172.541 269.879 172.426 270.053C172.196 270.42 174.236 271.226 174.247 271.303C174.321 272.292 171.843 272.058 175.524 274.384C165.198 270.036 176.265 275.312 173.796 275.386C173.599 275.389 168.646 273.512 168.104 272.799C167.569 272.075 169.341 272.169 168.506 271.12C168.299 270.89 164.253 267.897 164.054 267.632C162.43 265.672 169.447 269.339 169.844 269.514C173.422 271.018 171.167 269.02 170.184 267.999L169.805 268.799C169.56 268.622 169.378 268.484 169.332 268.421C168.154 266.756 169.548 266.283 168.787 264.976C168.3 264.123 163.559 262.033 163.897 261.649C165.014 260.385 171.831 262.848 166.663 259.043C165.559 258.235 160.268 256.199 164.755 257.062C165.036 257.119 169.072 258.062 166.879 256.643C166.602 256.465 165.088 255.809 164.988 255.69C164.348 254.913 165.675 255.154 165.283 254.464C164.928 253.841 164.354 253.072 164.773 252.745C164.839 252.655 164.916 252.57 165.005 252.492C165.587 251.956 168.71 252.521 169.501 252.609C171.764 252.889 168.932 250.623 171.461 251.457C173.974 252.354 177.183 254.845 179.115 254.856C175.369 252.771 171.554 250.577 167.812 248.433C169.186 246.27 171.499 245.244 172.488 243.416C172.609 243.184 170.547 242.122 170.627 241.842C170.981 240.658 172.894 240.778 173.022 239.454C173.106 238.434 171.686 236.218 171.717 235.118C176.039 237.508 175.457 235.465 176.389 234.946C176.716 234.759 177.759 235.552 178.244 235.612C180.049 235.818 176.298 233.605 175.893 233.003C174.161 230.436 182.146 236.14 182.669 235.015C182.7 234.957 178.954 231.22 178.755 230.941C177.453 229.124 180.29 231.926 180.86 231.803C181.901 231.577 183.233 231.875 182.545 230.223C182.336 229.742 180.104 227.274 182.438 228.356C182.745 228.496 184.115 229.55 184.23 229.566C186.183 229.757 181.824 226.516 180.676 224.971C179.532 223.422 183.076 224.93 184.053 225.426C186.585 226.701 184.804 226.422 185.011 226.603C187.469 228.773 187.392 227.928 187.907 227.692C192.245 230.783 192.397 230.035 188.424 227.434C187.991 227.149 188.161 227.756 187.907 227.692C183.955 224.244 183.845 223.262 188.286 225.462C190.364 226.497 192.298 228.375 192.21 226.84C192.172 226.143 189.092 224.143 188.559 223.178C188.055 222.26 188.381 221.874 188.955 221.643C189.75 221.335 191.047 221.315 191.177 220.602C191.263 220.152 189.402 219.296 189.405 218.947C189.4 218.028 191.015 218.37 190.826 217.321C190.807 217.224 189.012 216.118 189.128 215.915C189.975 214.34 191.977 213.885 193.1 212.42C193.646 211.705 193.661 209.731 194.4 209.124C195.673 208.061 199.307 208.292 199.532 206.75C199.686 205.748 197.886 204.647 196.97 203.479C195.19 201.224 199.966 203.143 200.685 203.468C200.71 203.476 200.64 204.396 201.752 204.712C203.696 205.867 200.687 203.481 200.685 203.468C201.15 203.676 202.461 202.727 202.325 202.24C202.25 201.976 200.604 200.851 200.594 200.736C200.42 198.007 201.273 196.046 203.295 194.935C203.349 194.93 205.085 196.328 205.19 196.299C206.715 195.936 205.027 193.66 204.362 191.873C203.699 190.084 204.618 189.782 208.007 191.652C208.092 190.756 210.095 190.936 211.29 191.073C212.482 191.213 209.121 188.472 209.088 188.376C207.994 185.322 210.567 186.067 211.982 184.903C212.661 184.353 213.225 182.637 213.437 181.617C213.599 180.806 214.667 181.099 214.586 180.165C214.576 180.039 213.016 178.898 212.976 178.83C211.656 176.787 215.097 180.039 215.85 180.448C218.588 181.938 220.07 182.702 219.559 181.047C219.441 180.668 214.589 175.865 214.544 175.294C214.492 174.562 216.247 176.263 216.145 175.458C216.138 175.39 214.971 174.443 215.242 174.218C216.484 173.162 218.272 172.38 219.236 171.001C219.372 170.817 217.359 169.506 217.527 169.213C218.009 168.371 218.65 167.564 219.493 166.979C220.023 166.608 220.634 166.324 221.338 166.164C221.795 166.066 222.905 167.334 223.333 167.597C225.924 169.184 223.091 165.802 223.105 165.659C223.349 162.189 227.701 163.221 228.157 159.9C228.175 159.714 225.485 155.72 228.81 158.015C229.033 158.166 232.417 160.533 230.642 158.319C230.531 158.18 228.752 157.001 229.286 156.732C229.817 156.465 229.383 154.848 231.608 155.848C232.311 156.162 235.713 158.497 233.79 155.771C233.652 155.586 228.97 149.789 232.983 152.934C233.643 153.453 237.561 157.139 236.103 154.649C235.82 154.168 234.736 153.573 234.475 152.75C234.071 151.484 235.715 151.825 234.499 149.609C234.282 149.219 232.002 146.304 234.361 147.835C234.731 148.074 235.954 149.397 236.273 149.348C237.792 149.124 237.754 147.395 239.481 147.358C240.09 147.341 242.075 149.471 242.948 149.674C243.82 149.876 244.973 149.729 244.311 148.49C243.648 147.251 239.905 144.484 240.099 143.727C240.941 140.44 244.91 140.127 247.155 138.23C247.488 137.949 246.019 137.106 246.419 136.615C247.899 134.79 249.332 130.815 253.281 131.611C256.461 132.234 256.774 135.163 258.447 134.974C259.253 134.875 255.57 130.9 255.53 130.685C255.106 128.524 257.542 129.326 257.77 127.904C257.816 127.61 255.975 126.414 256.032 126.181C256.204 125.378 257.447 125.395 257.749 124.741C257.88 124.444 256.549 123.441 256.829 123.299C257.485 122.945 258.407 122.913 260.048 123.356C260.199 123.396 261.561 125.012 261.943 124.655C262.065 124.538 262.238 124.45 262.431 124.37C263.194 124.055 264.282 123.848 263.749 122.459C263.548 121.939 260.54 119.607 262.996 120.725C263.509 120.958 267.036 123.87 264.34 120.896C263.897 120.397 260.378 116.225 263.47 117.827C264.284 118.249 267.514 120.177 267.254 119.543C267.207 119.449 265.458 118.374 265.471 118.024C265.543 116.815 266.35 116.093 266.449 114.874C266.472 114.547 264.522 113.629 264.609 113.183C264.846 111.955 266.109 111.127 267.296 110.605C267.737 110.415 268.997 111.665 269.17 111.752C271.977 113.16 268.734 110.494 268.627 110.223C268.011 108.567 270.055 109.08 270.159 108.026C270.191 107.738 268.452 106.741 268.335 106.598C267.209 105.173 269.924 107.547 270.439 107.5C271.891 107.375 272.354 106.425 272.68 105.5C272.797 105.159 270.668 104.169 270.795 103.879C271.506 102.138 272.76 100.681 274.826 99.8864C275.219 99.7389 276.582 100.907 276.96 101.074C279.603 102.245 276.77 99.4889 276.552 99.1479C275.56 97.5869 277.035 98.2139 277.156 97.4957C277.72 93.9807 280.773 91.1707 282.974 88.8972C285.833 85.9323 288.937 84.1478 290.593 80.6023C290.7 80.3785 288.548 79.3523 288.614 79.1439C289.556 76.5096 291.749 74.6756 292.582 71.956C292.654 71.7348 290.558 70.8588 290.609 70.4647C290.669 69.92 290.951 69.4072 291.429 69.0452C291.668 68.8619 291.957 68.7164 292.291 68.6231C292.776 68.4842 294.18 69.8966 294.635 69.7363C295.696 69.3694 296.312 68.6463 296.452 67.704C296.51 67.297 294.24 66.6159 294.469 66.179C295.977 63.1883 297.289 60.1701 301.562 58.7455C301.854 58.6495 305.998 60.8193 305.472 59.9405C304.369 59.2573 303.048 58.4934 301.858 57.7836C303.656 53.1965 307.456 49.8175 310.095 45.6635C310.205 45.4881 307.874 44.5802 308.077 44.2349C309.25 42.236 309.756 39.9393 313.066 39.0678C313.391 38.9795 317.131 41.2161 316.898 40.2845C316.853 40.1177 316.858 38.9194 316.166 38.2195C316.06 38.1177 314.192 37.2924 314.306 36.9681C314.995 35.1023 316.405 33.5272 318.449 32.4102C318.782 32.2316 320.509 33.5808 320.763 33.4626C322.549 32.6174 321.961 30.2868 324.427 29.8956C326.085 29.6372 329.171 31.7886 332.658 33.0985C333.15 33.2831 333.532 32.7644 335.422 33.7765C340.174 36.3198 345.183 39.4565 350.267 42.1355C351.361 42.7129 350.612 41.3174 352.98 43.2126C353.138 43.3407 353.704 44.3653 354.516 44.9917C355.077 45.4254 357.076 46.3163 357.755 46.9422C358.434 47.5678 356.721 46.8891 357.468 47.7164C358.226 48.55 360.471 49.6158 360.378 50.3879ZM216.631 191.692C218.622 192.529 212.687 187.739 213.732 189.361C213.789 189.445 216.532 191.652 216.631 191.692ZM176.33 248.396C179.589 249.546 175.753 246.38 173.258 245.447C170.755 244.535 175.33 248.067 176.33 248.396ZM174.347 257.389C177.119 257.619 167.124 253.485 168.847 255.049C168.944 255.139 174.187 257.374 174.347 257.389ZM332.34 35.8301C332.432 35.8725 332.741 35.5192 332.659 35.4609C330.66 34.0706 330.044 34.7775 332.34 35.8301ZM173.788 265.368C175.239 265.699 174.008 264.301 172.205 263.883C170.753 263.55 171.98 264.963 173.788 265.368ZM242.067 173.931C242.158 174 242.454 173.822 241.97 173.399C240.413 172.036 240.542 172.769 242.067 173.931ZM168.716 277.565C169.243 276.668 171.975 276.73 174.185 277.234C174.96 277.42 175.669 277.661 176.205 277.908C177.012 278.31 177.394 278.786 176.936 279.258C176.643 279.559 174.491 277.583 173.574 277.786C171.904 278.158 177.04 280.487 173.904 280.39C173.33 280.37 168.641 277.655 168.706 277.558C168.709 277.56 168.713 277.563 168.716 277.565ZM224.031 197.102C224.117 197.155 224.475 196.857 224.403 196.786C222.656 195.091 221.932 195.695 224.031 197.102ZM258.517 162.935C258.692 163.063 259.559 162.42 259.436 162.26C256.9 159.17 255.142 160.459 258.517 162.935ZM209.97 224.883C211.636 226.728 211.527 227.362 208.821 225.879C209.25 225.569 209.553 225.197 209.97 224.883Z" fill="#FF0000"/>
<path d="M15.8266 434.725C-28.3448 86.5194 63.2538 8.45718 63.7452 11.1475C64.2255 13.7768 116.126 141.861 173.87 216.289C176.896 220.189 182.702 220.274 185.942 216.55C245.238 148.402 278.353 103.119 326.506 24.6528C329.934 19.0672 338.272 19.6911 340.726 25.7678C398.616 169.115 411.259 257.234 389.723 412.227C389.175 416.168 385.791 419.148 381.812 419.148H346.815C341.829 419.148 338.065 414.603 338.929 409.693C360.753 285.638 363.111 210.829 344.747 89.3056C343.681 82.2533 334.585 80.0653 330.363 85.8133C280.454 153.75 244.222 192.547 180.419 250.552C177.058 253.608 171.822 253.245 168.927 249.744C120.73 191.468 94.0328 152.016 60.9682 89.6385C57.2158 82.5595 46.4781 84.6509 45.8104 92.635C35.5721 215.065 38.0151 292.197 58.7533 420.077C59.3304 423.636 57.4728 427.19 54.196 428.694L27.0857 441.132C22.1949 443.376 16.5038 440.063 15.8266 434.725Z" stroke="black" stroke-width="6"/>
</svg>
