<svg width="134" height="90" viewBox="0 0 134 90" fill="none" xmlns="http://www.w3.org/2000/svg">
<path d="M133.504 59.008H105.472V60.288H128.128V62.848H118.144V63.488H108.16V65.408H101.632V67.328H98.816V69.248H85.376V71.808H105.472V74.368H95.232V75.648H104.192V76.928H109.568V78.848H111.488V80.768H113.28V82.048H113.408V84.608H116.096V85.248H114.688V85.888H111.488V86.528H104.064L103.68 87.808H99.712C99.3707 88.4053 98.9867 88.832 98.56 89.088H103.296C102.869 89.4293 102.272 89.6 101.504 89.6H78.336C77.568 89.6 76.9707 89.4293 76.544 89.088H71.68C71.2533 88.832 70.8693 88.4053 70.528 87.808H74.368C74.112 87.3813 73.984 86.9547 73.984 86.528H81.408V85.888H84.608V85.248H86.016V84.608H83.328V82.048H83.2V80.768H81.408V78.848H79.488V76.928H74.112V75.648H65.152V74.368H75.392V71.808H30.08V74.368H48.384V75.648H45.696V78.848H46.208V80.768H43.776V82.048H42.88V84.608H43.264V85.248H52.736V85.888H44.8V86.528H49.408C49.408 86.9547 49.28 87.3813 49.024 87.808H41.984C41.728 88.4053 41.3013 88.832 40.704 89.088H39.936C39.5093 89.4293 38.8693 89.6 38.016 89.6H14.848C14.08 89.6 13.4827 89.4293 13.056 89.088H13.952C13.696 88.9173 13.44 88.7467 13.184 88.576C13.0133 88.32 12.8427 88.064 12.672 87.808H19.84C19.584 87.3813 19.456 86.9547 19.456 86.528H14.72V85.888H22.656V85.248H13.184V84.608H12.8V82.048H13.696V80.768H16.128V78.848H15.616V75.648H18.304V74.368H0V71.808H27.648V69.248H2.432V67.328H1.792V65.408H12.288V63.488H16V62.848H7.808V60.288H25.728V59.008H38.272L37.888 58.368H15.104V57.728H19.328V57.088H16.128V54.528H16.256V53.248H19.2V51.328H18.56V48.768H15.104V48.128H3.584V46.848H13.568V46.208H13.184V44.928H18.816V43.648H21.888V41.728H1.664V39.168H17.792V37.888H3.456V35.968H18.304V34.688H16.512V33.408H11.648V32.768H14.08V30.848H28.8V28.928H26.624V27.648H14.464V27.008H13.824V25.088H19.84V22.528H6.528V21.248H11.136V20.608H12.416V19.328H9.472V17.408H20.992V15.488H15.104V12.928H24.832V12.288H21.76V9.728H33.152V7.808H6.4V5.888H34.816V3.968H22.272V2.688H12.672C12.7573 2.26134 12.8853 1.92 13.056 1.664C13.312 1.32267 13.568 1.024 13.824 0.768005H14.464C14.976 0.256002 15.7013 0 16.64 0H36.864C38.0587 0 39.04 0.256002 39.808 0.768005H39.168C39.68 1.024 40.1067 1.32267 40.448 1.664C40.7893 2.00534 41.0453 2.34667 41.216 2.688H50.944L51.456 3.456L51.712 3.968H64.384L65.536 5.888H37.12L38.272 7.808H64.896L66.048 9.728H54.784L56.32 12.288H59.392L59.776 12.928H50.048L51.584 15.488H57.344L58.496 17.408H47.104L48.256 19.328H51.2L51.968 20.608H50.688L51.072 21.248H46.464L47.232 22.528H60.544L62.08 25.088H56.064L57.216 27.008H57.856L58.24 27.648H67.712L68.096 27.008H64.64L65.792 25.088H70.016L71.552 22.528H69.248L70.016 21.248H59.648L60.032 20.608H72.96L73.728 19.328H72.704L73.856 17.408H81.536L82.688 15.488H83.072L84.608 12.928H78.72L79.104 12.288H92.544L94.08 9.728H93.312L94.464 7.808H74.752L75.904 5.888H94.848L96 3.968H82.048L82.304 3.456C82.4747 3.11467 82.6453 2.85867 82.816 2.688H83.072C83.328 2.34667 83.6267 2.00534 83.968 1.664C84.3093 1.32267 84.6933 1.024 85.12 0.768005H84.864C85.632 0.256002 86.6133 0 87.808 0H108.032C108.885 0 109.611 0.256002 110.208 0.768005H110.592C110.848 1.024 111.061 1.32267 111.232 1.664C111.488 1.92 111.659 2.26134 111.744 2.688H111.488V3.968H125.568V5.888H106.624V7.808H126.336V9.728H127.104V12.288H113.664V12.928H119.552V15.488H119.168V17.408H111.488V19.328H112.512V20.608H99.584V21.248H109.952V22.528H112.256V25.088H108.16V27.008H111.488V27.648H117.504V28.928H104.32V30.848H113.792V32.768H111.488V33.408H112V34.688H113.792V35.968H98.944V37.888H113.28V39.168H97.152V41.728H117.376V43.648H114.304V44.928H108.672V46.208H109.056V46.848H99.072V48.128H110.592V48.768H114.048V51.328H111.104V53.248H108.928V54.528H111.488V57.088H112.64V57.728H118.144V58.368H133.504V59.008ZM73.6 27.648H70.4L71.168 28.928H72.832L73.6 27.648ZM58.496 32.768L58.88 33.408H63.872L64.256 34.176L64.768 33.408H64.256L64.64 32.768H66.816L67.968 30.848H59.904L61.056 32.768H58.496ZM77.44 53.248H81.024V51.328H78.592L77.44 53.248ZM46.208 57.088H49.408V57.728H45.184V58.368H53.888L53.504 57.728H51.456L50.944 57.088H49.792L48.256 54.528H48.512L47.744 53.248H46.336V54.528H46.208V57.088ZM103.424 59.008V58.368H88.064V57.728H82.56V57.088H81.408V54.528H79.36L77.696 57.088H78.976L78.592 57.728H80.64L80.256 58.368H69.76V59.008H55.808V60.288H37.888V62.848H46.08V63.488H42.368V65.408H31.872V67.328H32.512V69.248H68.736V67.328H71.552V65.408H60.8C60.544 65.7493 60.288 66.0907 60.032 66.432C59.776 66.7733 59.4347 67.072 59.008 67.328H58.624C57.856 67.84 57.0027 68.096 56.064 68.096H47.104C46.08 68.096 45.184 67.84 44.416 67.328H44.8C44.4587 67.072 44.1173 66.7733 43.776 66.432C43.52 66.0907 43.264 65.7493 43.008 65.408H56.192L55.808 64.896L54.912 63.488H50.304L49.92 62.848H58.88L57.216 60.288H72.192L71.424 59.008H103.424ZM98.048 62.848V60.288H81.28L79.744 62.848H70.912L70.528 63.488H75.136L74.24 64.896L73.856 65.408H78.08V63.488H88.064V62.848H98.048Z" fill="#B40000"/>
</svg>
